<?xml version="1.0" encoding="UTF-8" standalone="no"?>
<!-- Created with Inkscape (http://www.inkscape.org/) -->

<svg
   version="1.1"
   id="svg1"
   width="512"
   height="512"
   viewBox="0 0 512 512"
   sodipodi:docname="avatar.png"
   xmlns:inkscape="http://www.inkscape.org/namespaces/inkscape"
   xmlns:sodipodi="http://sodipodi.sourceforge.net/DTD/sodipodi-0.dtd"
   xmlns="http://www.w3.org/2000/svg"
   xmlns:svg="http://www.w3.org/2000/svg">
  <defs
     id="defs1" />
  <sodipodi:namedview
     id="namedview1"
     pagecolor="#ffffff"
     bordercolor="#000000"
     borderopacity="0.25"
     inkscape:showpageshadow="2"
     inkscape:pageopacity="0.0"
     inkscape:pagecheckerboard="0"
     inkscape:deskcolor="#d1d1d1"
     showgrid="false">
    <inkscape:page
       x="0"
       y="0"
       width="512"
       height="512"
       id="page2"
       margin="0"
       bleed="0" />
  </sodipodi:namedview>
  <g
     inkscape:groupmode="layer"
     inkscape:label="Image"
     id="g1">
    <path
       style="fill:#ffffff;stroke-width:1.11149"
       d="M 223.26077,510.48364 C 148.35669,500.44786 83.653068,460.01307 41.909296,397.15293 21.963315,367.11715 8.7168966,333.06465 2.4118225,295.61702 c -2.83967659,-16.86567 -2.83967659,-61.33118 0,-78.19686 C 8.7168966,179.97253 21.963315,145.92005 41.909296,115.88426 84.976535,51.031158 152.26817,10.198674 229.72564,1.9175394 c 17.9026,-1.91400342 51.39242,-0.7973957 69.11609,2.3044469 69.9165,12.2361797 130.67619,52.0899117 170.23662,111.6622737 19.94598,30.03579 33.1924,64.08827 39.49748,101.5359 2.83968,16.86568 2.83968,61.33119 0,78.19686 -6.30508,37.44763 -19.5515,71.50013 -39.49748,101.53591 -39.55683,59.56694 -100.11733,99.29816 -170.23662,111.68512 -17.93855,3.16894 -57.74273,4.03557 -75.58096,1.64559 z m 61.48209,-29.99726 c 101.58371,-13.31645 181.19589,-92.99097 194.76511,-194.91762 2.05871,-15.46424 2.03974,-42.40795 -0.0409,-58.16971 C 472.82918,177.11529 450.58132,132.23436 414.54815,96.437246 407.45641,89.391947 397.23526,80.325836 391.83452,76.290324 330.6507,30.573043 252.25199,18.447762 180.30215,43.574364 119.54788,64.791201 70.152055,112.02751 45.95739,172.04577 26.117222,221.26206 24.522465,279.3197 41.635115,329.39964 64.009968,394.87939 116.24635,447.3907 181.25572,469.7551 c 14.93409,5.13758 29.78554,8.73644 44.22801,10.71746 14.68056,2.0137 43.95124,2.02051 59.25913,0.0138 z M 231.7914,461.04401 C 184.52323,455.08604 144.11637,435.28789 110.43856,401.58475 96.912558,388.04856 82.102225,369.35662 82.102225,365.82179 c 0,-0.8585 1.489768,-5.42107 3.310591,-10.13905 4.073246,-10.55425 14.119656,-26.26237 22.740444,-35.55593 13.72552,-14.79666 35.44661,-27.99694 55.64308,-33.81522 l 8.89188,-2.56161 h 82.80561 82.8056 l 8.89188,2.56809 c 10.93809,3.15908 26.81198,10.57309 36.25953,16.93525 10.616,7.14904 24.25895,21.35025 31.9834,33.29217 6.20348,9.5905 13.45119,25.36505 13.45119,29.2763 0,3.53851 -14.81475,22.2305 -28.33633,35.75241 -31.29322,31.29393 -66.55529,49.72306 -110.80925,57.91263 -10.8089,2.00027 -46.76711,2.96654 -57.94845,1.55718 z m 11.4761,-196.86663 c -9.56369,-1.0838 -24.67846,-5.50558 -32.7888,-9.59227 -14.47932,-7.29591 -30.4997,-21.16975 -39.42544,-34.14286 -5.37637,-7.81428 -11.78562,-22.20364 -14.62555,-32.83571 -3.23761,-12.12093 -3.56113,-35.31759 -0.6547,-46.94612 10.27186,-41.097574 40.91377,-70.510491 81.40868,-78.143526 12.77434,-2.407883 31.75941,-1.707184 44.43202,1.639895 19.71122,5.206102 40.07135,18.336256 52.6188,33.933644 8.68679,10.798317 13.68644,19.849837 17.827,32.274647 20.69212,62.09216 -20.62791,126.5876 -85.75281,133.84946 -11.75375,1.31062 -11.13744,1.3116 -23.0392,-0.0371 z"
       id="path1" />
  </g>
</svg>
